<svg aria-hidden="true" style="position: absolute; width: 0; height: 0; overflow: hidden;" version="1.1" xmlns="http://www.w3.org/2000/svg" xmlns:xlink="http://www.w3.org/1999/xlink">
<defs>
<symbol id="icon-correo" viewBox="0 0 43 32">
<path d="M38.667 0h-34.667c-2.206 0-4 1.794-4 4v24c0 2.206 1.794 4 4 4h34.667c2.206 0 4-1.794 4-4v-24c0-2.206-1.794-4-4-4zM38.667 2.667c0.181 0 0.353 0.038 0.511 0.103l-17.844 15.466-17.844-15.466c0.158-0.066 0.33-0.103 0.511-0.103h34.667zM38.667 29.333h-34.667c-0.736 0-1.333-0.598-1.333-1.333v-22.413l17.793 15.421c0.251 0.217 0.563 0.326 0.874 0.326s0.622-0.108 0.874-0.326l17.793-15.421v22.413c0 0.736-0.598 1.333-1.333 1.333z"></path>
</symbol>
<symbol id="icon-movil" viewBox="0 0 20 32">
<path d="M17 0h-14c-1.654 0-3 1.346-3 3v26c0 1.654 1.346 3 3 3h14c1.654 0 3-1.346 3-3v-26c0-1.654-1.346-3-3-3zM3 2h14c0.552 0 1 0.448 1 1v21h-16v-21c0-0.552 0.448-1 1-1zM17 30h-14c-0.552 0-1-0.448-1-1v-3h16v3c0 0.552-0.448 1-1 1z"></path>
</symbol>
<symbol id="icon-icon-computer" viewBox="0 0 72 32">
<path d="M35.373 15.396h0.622v2.799h-0.622v-2.799z"></path>
<path d="M37.861 16.64h0.622v1.555h-0.622v-1.555z"></path>
<path d="M32.886 17.573h0.622v0.622h-0.622v-0.622z"></path>
<path d="M31.020 17.262h0.622v0.933h-0.622v-0.933z"></path>
<path d="M27.599 23.17h14.926c0.515 0 0.933-0.418 0.933-0.933v-1.244c0-0.515-0.418-0.933-0.933-0.933h-0.311v-7.754l1.766-1.673c0.41 0.202 0.906 0.079 1.174-0.291s0.231-0.88-0.089-1.207c-0.32-0.327-0.829-0.375-1.205-0.115s-0.51 0.754-0.317 1.168l-1.331 1.262v-0.717c0-0.515-0.418-0.933-0.933-0.933h-12.438c-0.515 0-0.933 0.418-0.933 0.933v9.328h-0.311c-0.515 0-0.933 0.418-0.933 0.933v1.244c0 0.515 0.418 0.933 0.933 0.933l0.002-0.001zM44.391 9.488c0.172 0 0.311 0.139 0.311 0.311s-0.139 0.311-0.311 0.311c-0.172 0-0.311-0.139-0.311-0.311s0.139-0.311 0.311-0.311zM28.532 10.732c0-0.172 0.139-0.311 0.311-0.311h12.438c0.172 0 0.311 0.139 0.311 0.311v1.306l-0.622 0.591v-1.275c0-0.172-0.139-0.311-0.311-0.311h-11.194c-0.172 0-0.311 0.139-0.311 0.311v7.774c0 0.172 0.139 0.311 0.311 0.311h11.194c0.171 0 0.311-0.139 0.311-0.311v-5.643l0.622-0.589v7.165h-13.060v-9.329zM31.331 14.774c-0.421-0.001-0.79 0.279-0.902 0.685s0.061 0.836 0.423 1.050c0.362 0.215 0.822 0.161 1.125-0.132l1.081 0.542c0.126 0.063 0.278 0.033 0.371-0.072l2.298-2.585 2.259 1.692c0.121 0.091 0.29 0.081 0.4-0.023l1.963-1.859v4.743h-10.572v-7.152h10.572v1.552l-2.2 2.083-2.278-1.707c-0.129-0.097-0.311-0.079-0.419 0.042l-2.329 2.621-0.871-0.435c0.006-0.037 0.010-0.075 0.012-0.113 0-0.515-0.418-0.933-0.933-0.933v0.001zM31.642 15.707c0 0.172-0.139 0.311-0.311 0.311s-0.311-0.139-0.311-0.311c0-0.172 0.139-0.311 0.311-0.311s0.311 0.139 0.311 0.311zM33.507 20.682h3.11v0.311c0 0.172-0.139 0.311-0.311 0.311h-2.488c-0.172 0-0.311-0.139-0.311-0.311v-0.311zM27.289 20.993c0-0.172 0.139-0.311 0.311-0.311h5.286v0.311c0 0.515 0.418 0.933 0.933 0.933h2.488c0.515 0 0.933-0.418 0.933-0.933v-0.311h5.286c0.172 0 0.311 0.139 0.311 0.311v1.244c0 0.172-0.139 0.311-0.311 0.311h-14.926c-0.172 0-0.311-0.139-0.311-0.311v-1.244z"></path>
</symbol>
<symbol id="icon-icon-reloj" viewBox="0 0 31 32">
<path d="M29.317 13.732c-0.002-7.585-6.152-13.733-13.738-13.732s-13.733 6.152-13.732 13.738c0.001 5.975 3.865 11.264 9.557 13.081 0.054 0.017 0.111 0.026 0.168 0.026 0.108-0 0.214-0.029 0.307-0.084 0.121-0.072 0.212-0.186 0.254-0.32l3.469-10.994c0.948-0.005 1.713-0.778 1.708-1.726s-0.777-1.713-1.726-1.708c-0.255 0.001-0.507 0.060-0.736 0.172l-4.582-4.583c-0.227-0.22-0.59-0.213-0.809 0.014-0.214 0.222-0.214 0.573 0 0.795l4.58 4.585c-0.351 0.717-0.151 1.583 0.481 2.072l-3.305 10.476c-6.531-2.406-9.876-9.651-7.47-16.182s9.651-9.876 16.182-7.47 9.876 9.651 7.47 16.182c-1.175 3.191-3.591 5.772-6.697 7.156l-0.357-1.682c-0.065-0.309-0.369-0.507-0.678-0.441-0.098 0.021-0.188 0.067-0.262 0.133l-3.443 3.074c-0.236 0.21-0.257 0.572-0.047 0.808 0.068 0.077 0.156 0.134 0.254 0.165l4.396 1.403c0.301 0.097 0.623-0.069 0.72-0.37 0.031-0.095 0.036-0.196 0.015-0.294l-0.351-1.65c5.083-2.143 8.384-7.128 8.372-12.644zM15.583 13.16c0.316 0 0.572 0.256 0.572 0.572s-0.256 0.572-0.572 0.572c-0.316 0-0.572-0.256-0.572-0.572s0.256-0.572 0.572-0.572zM17.468 26.499l1.96-1.748 0.541 2.549-2.501-0.801z"></path>
<path d="M15.010 2.858v1.145c0 0.316 0.256 0.572 0.572 0.572s0.572-0.256 0.572-0.572v-1.145c0-0.316-0.256-0.572-0.572-0.572s-0.572 0.256-0.572 0.572z"></path>
<path d="M4.709 13.16c-0.316 0-0.572 0.256-0.572 0.572s0.256 0.572 0.572 0.572h1.145c0.316 0 0.572-0.256 0.572-0.572s-0.256-0.572-0.572-0.572h-1.145z"></path>
<path d="M26.456 14.304c0.316 0 0.572-0.256 0.572-0.572s-0.256-0.572-0.572-0.572h-1.145c-0.316 0-0.572 0.256-0.572 0.572s0.256 0.572 0.572 0.572h1.145z"></path>
</symbol>
<symbol id="icon-icon-facebook" viewBox="0 0 32 32">
<path d="M21.329 5.313h2.921v-5.088c-0.504-0.069-2.237-0.225-4.256-0.225-4.212 0-7.097 2.649-7.097 7.519v4.481h-4.648v5.688h4.648v14.312h5.699v-14.311h4.46l0.708-5.688h-5.169v-3.919c0.001-1.644 0.444-2.769 2.735-2.769z"></path>
</symbol>
<symbol id="icon-icon-instagram" viewBox="0 0 32 32">
<path d="M31.969 9.408c-0.075-1.7-0.35-2.869-0.744-3.882-0.406-1.075-1.032-2.038-1.851-2.838-0.8-0.813-1.769-1.444-2.832-1.844-1.019-0.394-2.182-0.669-3.882-0.744-1.713-0.081-2.257-0.1-6.601-0.1s-4.888 0.019-6.595 0.094c-1.7 0.075-2.869 0.35-3.882 0.744-1.075 0.406-2.038 1.031-2.838 1.85-0.813 0.8-1.444 1.769-1.844 2.832-0.394 1.019-0.669 2.182-0.744 3.882-0.081 1.713-0.1 2.257-0.1 6.601s0.019 4.888 0.094 6.595c0.075 1.7 0.35 2.869 0.744 3.882 0.406 1.075 1.038 2.038 1.85 2.838 0.8 0.813 1.769 1.444 2.832 1.844 1.019 0.394 2.182 0.669 3.882 0.744 1.706 0.075 2.25 0.094 6.595 0.094s4.888-0.019 6.595-0.094c1.7-0.075 2.869-0.35 3.882-0.744 2.151-0.832 3.851-2.532 4.682-4.682 0.394-1.019 0.669-2.182 0.744-3.882 0.075-1.707 0.094-2.251 0.094-6.595s-0.006-4.888-0.081-6.595zM29.087 22.473c-0.069 1.563-0.331 2.407-0.55 2.969-0.538 1.394-1.644 2.5-3.038 3.038-0.563 0.219-1.413 0.481-2.969 0.55-1.688 0.075-2.194 0.094-6.464 0.094s-4.782-0.019-6.464-0.094c-1.563-0.069-2.407-0.331-2.969-0.55-0.694-0.256-1.325-0.663-1.838-1.194-0.531-0.519-0.938-1.144-1.194-1.838-0.219-0.563-0.481-1.413-0.55-2.969-0.075-1.688-0.094-2.194-0.094-6.464s0.019-4.782 0.094-6.464c0.069-1.563 0.331-2.407 0.55-2.969 0.256-0.694 0.663-1.325 1.2-1.838 0.519-0.531 1.144-0.938 1.838-1.194 0.563-0.219 1.413-0.481 2.969-0.55 1.688-0.075 2.194-0.094 6.464-0.094 4.276 0 4.782 0.019 6.464 0.094 1.563 0.069 2.407 0.331 2.969 0.55 0.694 0.256 1.325 0.662 1.838 1.194 0.531 0.519 0.938 1.144 1.194 1.838 0.219 0.563 0.481 1.413 0.55 2.969 0.075 1.688 0.094 2.194 0.094 6.464s-0.019 4.77-0.094 6.458z"></path>
<path d="M16.059 7.783c-4.538 0-8.22 3.682-8.22 8.22s3.682 8.22 8.22 8.22c4.539 0 8.22-3.682 8.22-8.22s-3.682-8.22-8.22-8.22zM16.059 21.335c-2.944 0-5.332-2.388-5.332-5.332s2.388-5.332 5.332-5.332c2.944 0 5.332 2.388 5.332 5.332s-2.388 5.332-5.332 5.332v0z"></path>
<path d="M26.524 7.458c0 1.060-0.859 1.919-1.919 1.919s-1.919-0.859-1.919-1.919c0-1.060 0.859-1.919 1.919-1.919s1.919 0.859 1.919 1.919v0z"></path>
</symbol>
<symbol id="icon-icon-linkedin" viewBox="0 0 32 32">
<path d="M31.992 32v-0.001h0.008v-11.736c0-5.741-1.236-10.164-7.948-10.164-3.227 0-5.392 1.771-6.276 3.449h-0.093v-2.913h-6.364v21.364h6.627v-10.579c0-2.785 0.528-5.479 3.977-5.479 3.399 0 3.449 3.179 3.449 5.657v10.401h6.62z"></path>
<path d="M0.528 10.636h6.635v21.364h-6.635v-21.364z"></path>
<path d="M3.843 0c-2.121 0-3.843 1.721-3.843 3.843s1.721 3.879 3.843 3.879c2.121 0 3.843-1.757 3.843-3.879-0.001-2.121-1.723-3.843-3.843-3.843v0z"></path>
</symbol>
<symbol id="icon-icon-twitter" viewBox="0 0 32 32">
<path d="M32 6.078c-1.19 0.522-2.458 0.868-3.78 1.036 1.36-0.812 2.398-2.088 2.886-3.626-1.268 0.756-2.668 1.29-4.16 1.588-1.204-1.282-2.92-2.076-4.792-2.076-3.632 0-6.556 2.948-6.556 6.562 0 0.52 0.044 1.020 0.152 1.496-5.454-0.266-10.28-2.88-13.522-6.862-0.566 0.982-0.898 2.106-0.898 3.316 0 2.272 1.17 4.286 2.914 5.452-1.054-0.020-2.088-0.326-2.964-0.808 0 0.020 0 0.046 0 0.072 0 3.188 2.274 5.836 5.256 6.446-0.534 0.146-1.116 0.216-1.72 0.216-0.42 0-0.844-0.024-1.242-0.112 0.85 2.598 3.262 4.508 6.13 4.57-2.232 1.746-5.066 2.798-8.134 2.798-0.538 0-1.054-0.024-1.57-0.090 2.906 1.874 6.35 2.944 10.064 2.944 12.072 0 18.672-10 18.672-18.668 0-0.29-0.010-0.57-0.024-0.848 1.302-0.924 2.396-2.078 3.288-3.406z"></path>
</symbol>
<symbol id="icon-icon-antena" viewBox="0 0 32 32">
<path d="M30.773 22.098l-8.443-8.505 0.937-4.615c0.242 0.094 0.499 0.144 0.758 0.146h0.006c1.192 0.014 2.17-0.941 2.184-2.133s-0.941-2.17-2.133-2.184c-1.192-0.014-2.17 0.941-2.184 2.133-0.003 0.255 0.039 0.509 0.125 0.749l-4.96 0.605-8.091-8.133c-0.099-0.101-0.235-0.159-0.377-0.16-0.14 0.001-0.274 0.056-0.373 0.155l-1.513 1.504c-0.208 0.208-0.208 0.546 0 0.754l0.814 0.826c-3.153 5.798-2.129 12.978 2.519 17.663 0.043 0.041 0.092 0.074 0.146 0.098-0.034 0.18-0.051 0.364-0.052 0.547v6.187h-6.4c-1.472 0.002-2.665 1.195-2.667 2.667v1.067c0 0.295 0.239 0.533 0.533 0.533h24.533c0.295 0 0.533-0.239 0.533-0.533v-1.067c-0.002-1.472-1.195-2.665-2.667-2.667h-6.4v-2.742c1.003 0.21 2.024 0.317 3.049 0.32 2.458-0.003 4.877-0.615 7.040-1.783l0.818 0.823c0.099 0.101 0.235 0.159 0.377 0.16 0.14-0.001 0.274-0.056 0.373-0.155l1.513-1.504c0.208-0.208 0.208-0.546 0-0.754zM23.28 6.233c0.418-0.415 1.093-0.414 1.508 0.004s0.414 1.093-0.004 1.508c-0.2 0.199-0.47 0.31-0.752 0.31h-0.003c-0.589-0.003-1.064-0.483-1.061-1.072 0.002-0.282 0.115-0.552 0.314-0.751h-0.002zM22.024 9.738l-0.598 2.946-1.175-1.182 1.774-1.763zM21.419 8.836l-1.92 1.909-1.485-1.493 3.405-0.415zM24.004 28.8c0.884 0 1.6 0.716 1.6 1.6v0.533h-23.467v-0.533c0-0.884 0.716-1.6 1.6-1.6h20.267zM16.537 26.667v1.067h-5.333v-1.067h5.333zM11.204 25.6v-4.053c0-1.294 1.196-2.347 2.667-2.347s2.667 1.053 2.667 2.347v4.053h-5.333zM17.604 23.904v-2.357c0-1.882-1.675-3.413-3.733-3.413-1.331-0.020-2.576 0.657-3.281 1.786-4.058-4.274-4.971-10.645-2.279-15.887l18.602 18.708c-2.872 1.461-6.165 1.873-9.309 1.163zM28.893 23.22l-21.057-21.181 0.755-0.752 7.935 7.98c0.004 0 0.006 0.007 0.010 0.010l13.115 13.191-0.757 0.752z"></path>
<path d="M13.876 20.267h-0.005c-0.884-0.001-1.601 0.714-1.602 1.598s0.714 1.601 1.598 1.602h0.005c0.884 0.001 1.601-0.714 1.602-1.598s-0.714-1.601-1.598-1.602zM14.249 22.245c-0.1 0.1-0.236 0.156-0.378 0.155-0.295-0.002-0.532-0.242-0.531-0.536 0.001-0.141 0.057-0.276 0.157-0.375s0.233-0.154 0.373-0.155c0.295 0.002 0.532 0.241 0.53 0.536-0.001 0.141-0.057 0.276-0.157 0.375h0.005z"></path>
</symbol>
<symbol id="icon-icon-astronauta" viewBox="0 0 32 32">
<path d="M31.974 4.524c-0.063-0.193-0.229-0.333-0.43-0.363l-1.91-0.278-0.855-1.731c-0.179-0.365-0.777-0.365-0.956 0l-0.855 1.731-1.91 0.278c-0.201 0.029-0.367 0.17-0.431 0.363-0.062 0.193-0.011 0.405 0.135 0.547l1.383 1.348-0.326 1.903c-0.034 0.2 0.048 0.402 0.212 0.522 0.166 0.121 0.382 0.135 0.562 0.040l1.709-0.899 1.709 0.899c0.078 0.041 0.164 0.061 0.249 0.061 0.11 0 0.221-0.034 0.314-0.102 0.164-0.119 0.246-0.322 0.212-0.522l-0.326-1.903 1.383-1.348c0.145-0.142 0.197-0.354 0.135-0.547zM29.511 5.851c-0.125 0.122-0.183 0.299-0.153 0.472l0.191 1.114-1-0.526c-0.078-0.041-0.163-0.061-0.249-0.061s-0.17 0.020-0.249 0.061l-1.001 0.526 0.191-1.114c0.030-0.173-0.028-0.349-0.153-0.472l-0.81-0.789 1.119-0.163c0.174-0.025 0.324-0.134 0.402-0.292l0.5-1.013 0.5 1.013c0.078 0.157 0.228 0.267 0.402 0.292l1.119 0.163-0.809 0.789z"></path>
<path d="M26.134 20.522h-1.067v1.067h1.067v-1.067z"></path>
<path d="M26.134 22.656h-1.067v1.067h1.067v-1.067z"></path>
<path d="M27.2 21.589h-1.067v1.067h1.067v-1.067z"></path>
<path d="M25.067 21.589h-1.067v1.067h1.067v-1.067z"></path>
<path d="M22.4 26.389h-1.067v1.067h1.067v-1.067z"></path>
<path d="M22.4 28.522h-1.067v1.067h1.067v-1.067z"></path>
<path d="M23.467 27.456h-1.067v1.067h1.067v-1.067z"></path>
<path d="M21.333 27.456h-1.067v1.067h1.067v-1.067z"></path>
<path d="M16 24.256h-1.067v1.067h1.067v-1.067z"></path>
<path d="M16 26.389h-1.067v1.067h1.067v-1.067z"></path>
<path d="M17.067 25.322h-1.067v1.067h1.067v-1.067z"></path>
<path d="M14.933 25.322h-1.067v1.067h1.067v-1.067z"></path>
<path d="M5.867 6.122h-1.067v1.067h1.067v-1.067z"></path>
<path d="M5.867 8.255h-1.067v1.067h1.067v-1.067z"></path>
<path d="M6.933 7.189h-1.067v1.067h1.067v-1.067z"></path>
<path d="M4.8 7.189h-1.067v1.067h1.067v-1.067z"></path>
<path d="M24.715 14.159c-0.287-0.388-0.709-0.637-1.188-0.705-0.481-0.068-0.956 0.058-1.34 0.352l-1.252 0.96-1.898 1.417-1.358-0.541c2.421-1.086 4.114-3.508 4.114-6.32 0-3.823-3.123-6.933-6.961-6.933s-6.961 3.11-6.961 6.933c0 1.386 0.414 2.674 1.12 3.758l-2.764-0.024c-0.002 0-0.003 0-0.005 0-0.009 0-0.015 0.004-0.023 0.005-0.053 0.002-0.105 0.013-0.155 0.031-0.013 0.005-0.026 0.008-0.038 0.013-0.006 0.003-0.013 0.003-0.019 0.006l-3.233 1.596c-0.001 0-0.001 0-0.001 0.001l-1.893 0.911c-0.021 0.009-0.042 0.021-0.063 0.035-0.755 0.502-1.012 1.489-0.598 2.295 0.22 0.429 0.595 0.745 1.056 0.889 0.178 0.055 0.359 0.083 0.539 0.083 0.29 0 0.577-0.071 0.839-0.211l1.388-0.738 2.264-1.169 1.357-0.008-5.442 5.416c-0.001 0.001-0.001 0.001-0.002 0.001l-1.339 1.333c-0.316 0.315-0.49 0.732-0.49 1.178s0.174 0.863 0.49 1.179c0.325 0.323 0.752 0.485 1.179 0.485s0.854-0.162 1.18-0.485l1.314-1.309 1.741-1.3 0.901 0.897-1.762 1.754c-0 0.001-0.001 0.001-0.002 0.001l-1.339 1.333c-0.316 0.315-0.49 0.732-0.49 1.178s0.174 0.863 0.49 1.179c0.325 0.323 0.753 0.485 1.18 0.485s0.855-0.162 1.18-0.485l3.482-3.467c0.001-0.001 0.001-0.001 0.001-0.002l1.010-1-0.004-0.004c0.006-0.006 0.015-0.009 0.022-0.015l5.166-5.658 3.471 0.494c0.025 0.004 0.050 0.005 0.075 0.005 0.065 0 0.127-0.015 0.187-0.038 0.018-0.006 0.033-0.015 0.050-0.023 0.019-0.010 0.039-0.015 0.058-0.027l3.213-2.133c0.012-0.008 0.018-0.021 0.029-0.029 0.013-0.010 0.029-0.014 0.041-0.026l1.271-1.191c0.662-0.62 0.753-1.635 0.212-2.362zM2.13 17.77c-0.173 0.093-0.37 0.111-0.558 0.052-0.187-0.058-0.338-0.186-0.427-0.358-0.161-0.314-0.068-0.695 0.214-0.902l1.314-0.632 0.449 1.312-0.992 0.528zM5.628 15.942l-1.548 0.8-0.439-1.283 2.027-1.001-0.040 1.484zM20.727 9.322c0 0.918-0.219 1.785-0.599 2.559l-4.181-1.899c-0.044-0.573-0.341-1.075-0.788-1.388l1.464-4.86c2.378 0.756 4.105 2.974 4.105 5.588zM8.938 9.322c0-3.235 2.644-5.867 5.894-5.867 0.253 0 0.5 0.021 0.745 0.052l-1.432 4.754c-0.019-0.001-0.037-0.006-0.057-0.006-1.033 0-1.873 0.837-1.873 1.867s0.84 1.867 1.873 1.867c0.694 0 1.294-0.383 1.618-0.945l3.862 1.755c-1.075 1.446-2.795 2.39-4.737 2.39-3.25 0-5.894-2.632-5.894-5.867zM14.894 10.122c0 0.441-0.362 0.8-0.806 0.8s-0.806-0.359-0.806-0.8c0-0.441 0.362-0.8 0.806-0.8s0.806 0.359 0.806 0.8zM2.465 25.146c-0.236 0.234-0.619 0.234-0.854 0.001-0.114-0.114-0.176-0.263-0.176-0.423s0.062-0.309 0.176-0.421l0.962-0.958 0.851 0.848-0.959 0.955zM5.679 28.88c-0.236 0.234-0.619 0.235-0.855 0.001-0.114-0.114-0.176-0.263-0.176-0.423s0.062-0.309 0.176-0.421l0.963-0.959 0.852 0.848-0.96 0.955zM9.16 25.411c-0.001 0-0.001 0-0.002 0.001l-1.765 1.76-0.852-0.848 1.763-1.755c0 0 0 0 0-0s0.001-0.001 0.002-0.001c0.040-0.040 0.065-0.088 0.090-0.135 0.007-0.014 0.020-0.026 0.026-0.040 0.017-0.041 0.019-0.085 0.026-0.129 0.003-0.025 0.014-0.047 0.014-0.073 0-0.036-0.013-0.070-0.020-0.106-0.006-0.032-0.006-0.065-0.019-0.095-0.020-0.050-0.055-0.094-0.091-0.138-0.010-0.012-0.014-0.027-0.025-0.038 0 0 0 0-0.001 0s-0.001-0.002-0.001-0.002l-1.607-1.6c-0.017-0.017-0.039-0.024-0.058-0.038-0.028-0.022-0.055-0.042-0.087-0.058-0.030-0.015-0.061-0.024-0.093-0.033-0.034-0.010-0.067-0.017-0.103-0.020-0.033-0.002-0.063 0.001-0.095 0.005-0.036 0.004-0.069 0.009-0.104 0.020-0.034 0.011-0.063 0.027-0.094 0.045-0.020 0.011-0.042 0.015-0.061 0.029l-1.773 1.324-0.901-0.897 2.399-2.386 4.361 4.289-0.928 0.919zM15.979 18.394c-0.015-0.002-0.030 0.004-0.045 0.003-0.039-0.002-0.076 0.001-0.115 0.007-0.030 0.005-0.059 0.011-0.088 0.021-0.034 0.012-0.065 0.028-0.097 0.047-0.030 0.018-0.057 0.037-0.083 0.061-0.013 0.011-0.028 0.017-0.040 0.029l-4.698 5.146-4.328-4.257 2.833-2.818c0.209-0.208 0.21-0.546 0.002-0.755-0.105-0.105-0.243-0.157-0.381-0.156v-0.001l-2.219 0.013 0.028-1.607 3.104 0.027c1.265 1.294 3.029 2.101 4.981 2.101 0.437 0 0.864-0.045 1.279-0.123 0.040 0.032 0.079 0.065 0.13 0.085l2.41 0.96 0.152 0.758 0.178 0.885-3.003-0.427zM20.020 18.572l-0.313-1.558 1.446-1.080 0.947 1.257-2.080 1.381zM23.774 15.741l-0.838 0.785-0.931-1.236 0.831-0.637c0.155-0.119 0.351-0.168 0.543-0.143 0.193 0.027 0.364 0.128 0.48 0.284 0.217 0.292 0.18 0.699-0.085 0.947z"></path>
<path d="M13.602 18.544l-2.143-2.133c-0.207-0.207-0.545-0.207-0.753 0l-2.142 2.133c-0.1 0.101-0.157 0.236-0.157 0.378s0.056 0.278 0.157 0.378l2.142 2.133c0.104 0.103 0.241 0.155 0.377 0.155s0.273-0.052 0.376-0.155l2.143-2.133c0.1-0.1 0.157-0.236 0.157-0.378s-0.057-0.278-0.157-0.378zM11.083 20.303l-1.387-1.381 1.387-1.381 1.387 1.381-1.387 1.381z"></path>
<path d="M17.164 5.071l-0.258 1.036c0.071 0.018 1.738 0.452 1.738 2.149h1.067c-0-2.017-1.666-2.965-2.547-3.185z"></path>
<path d="M19.711 9.322h-1.067v1.067h1.067v-1.067z"></path>
</symbol>
<symbol id="icon-icon-client1" viewBox="0 0 67 32">
<path d="M27.654 8.331l2.768 2.621-5.139-0.003v12.716h13.432v-4.862l2.765 2.618v-13.090h-13.827zM38.595 18.495l-7.85-7.431h7.85v7.431zM36.157 21.804h-8.748v-8.552h0.618v7.973h8.13v0.579zM29.475 25.357l-0.323 0.666-0.323-0.666h-0.271l0.472 0.887v0.517h0.245v-0.517l0.471-0.887h-0.27zM29.881 26.762l0.114-0.327h0.544l0.115 0.327h0.255l-0.531-1.404h-0.219l-0.53 1.404h0.254zM30.267 25.655l0.203 0.583h-0.407l0.204-0.583zM31.554 26.204c-0.035 0.054-0.053 0.113-0.053 0.178 0 0.118 0.041 0.214 0.124 0.288s0.195 0.11 0.334 0.11 0.259-0.038 0.359-0.113l0.079 0.094h0.272l-0.206-0.244c0.081-0.111 0.122-0.252 0.122-0.425h-0.203c0 0.095-0.020 0.18-0.059 0.258l-0.271-0.32 0.096-0.069c0.068-0.049 0.116-0.098 0.146-0.147s0.044-0.104 0.044-0.162c0-0.089-0.033-0.163-0.098-0.223s-0.149-0.091-0.251-0.091c-0.113 0-0.203 0.032-0.27 0.096s-0.1 0.15-0.1 0.26c0 0.045 0.011 0.092 0.032 0.14s0.060 0.107 0.115 0.176c-0.104 0.075-0.174 0.139-0.209 0.194zM32.187 26.515c-0.069 0.053-0.143 0.079-0.222 0.079-0.070 0-0.126-0.020-0.168-0.061s-0.063-0.093-0.063-0.158c0-0.075 0.039-0.142 0.116-0.201l0.030-0.021 0.307 0.362zM31.936 25.893c-0.066-0.082-0.099-0.149-0.099-0.204 0-0.047 0.014-0.086 0.041-0.117s0.063-0.046 0.109-0.046c0.042 0 0.077 0.013 0.105 0.040s0.041 0.057 0.041 0.094c0 0.055-0.020 0.101-0.060 0.136l-0.030 0.024-0.107 0.073zM34.221 26.656c0.096-0.084 0.152-0.201 0.166-0.351h-0.243c-0.013 0.1-0.043 0.172-0.092 0.215s-0.12 0.065-0.216 0.065c-0.105 0-0.185-0.040-0.239-0.12s-0.081-0.195-0.081-0.347v-0.124c0.001-0.15 0.030-0.263 0.087-0.34s0.139-0.117 0.245-0.117c0.091 0 0.16 0.022 0.207 0.068s0.077 0.117 0.089 0.218h0.243c-0.015-0.154-0.070-0.273-0.165-0.357s-0.219-0.126-0.374-0.126c-0.115 0-0.217 0.027-0.305 0.082s-0.155 0.132-0.202 0.233-0.070 0.218-0.070 0.35v0.131c0.002 0.129 0.026 0.243 0.072 0.34s0.112 0.173 0.197 0.227c0.086 0.053 0.184 0.079 0.296 0.079 0.16 0 0.288-0.042 0.385-0.125zM35.656 26.459c0.048-0.104 0.071-0.225 0.071-0.363v-0.078c-0.001-0.137-0.025-0.257-0.073-0.36s-0.117-0.183-0.205-0.237c-0.088-0.055-0.189-0.083-0.304-0.083s-0.216 0.028-0.305 0.084c-0.088 0.055-0.157 0.135-0.205 0.24s-0.072 0.226-0.072 0.363v0.079c0.001 0.134 0.025 0.253 0.073 0.356s0.118 0.182 0.206 0.238c0.089 0.055 0.191 0.083 0.305 0.083 0.115 0 0.217-0.028 0.305-0.083s0.157-0.136 0.204-0.239zM35.394 25.665c0.059 0.083 0.089 0.202 0.089 0.358v0.073c0 0.158-0.029 0.278-0.088 0.361s-0.141 0.123-0.249 0.123c-0.107 0-0.19-0.042-0.251-0.126s-0.090-0.204-0.090-0.358v-0.081c0.001-0.151 0.032-0.268 0.091-0.35s0.142-0.124 0.248-0.124c0.108 0 0.191 0.041 0.25 0.124z"></path>
</symbol>
<symbol id="icon-icon-client2" viewBox="0 0 67 32">
<path d="M32.44 7.91h-0.054c-0.083-0.005-0.166-0.007-0.249-0.009v0h-0.18c-0.157 0-0.317 0.004-0.476 0.012-0.012-0.001-0.024-0.001-0.036 0-1.44 0.082-2.85 0.441-4.154 1.060l-0.171 0.082v8.747l0.4-0.136c0.351-0.121 0.725-0.229 1.111-0.33 1.046-0.268 2.119-0.411 3.198-0.425v1.149c-0.143 0.001-0.282 0.005-0.421 0.012h-0.033c-0.83 0.046-1.654 0.172-2.461 0.378-1.021 0.256-2.006 0.639-2.931 1.142v-11.218c0.961-0.561 1.997-0.982 3.075-1.251 0.947-0.245 1.921-0.37 2.898-0.374h0.169c0.202 0.005 0.399 0.014 0.584 0.028 0.487 0.034 0.97 0.111 1.444 0.23v1.131c-0.46-0.107-0.928-0.178-1.399-0.211-0.010-0.001-0.019-0.002-0.029-0.002-0.097-0.008-0.195-0.017-0.286-0.017zM34.431 9.066c0.251 0.019 0.511 0.028 0.774 0.028 1.028-0.004 2.051-0.135 3.047-0.391 1.020-0.257 2.005-0.641 2.93-1.143v11.019c-0.962 0.56-1.997 0.981-3.076 1.251-0.947 0.244-1.921 0.369-2.898 0.373-0.741 0.006-1.479-0.081-2.199-0.259v-11.090c0.17 0.039 0.345 0.075 0.523 0.105 0.292 0.049 0.6 0.085 0.899 0.107zM40.038 9.151l-0.4 0.135c-0.368 0.124-0.739 0.234-1.111 0.333-1.085 0.279-2.201 0.422-3.321 0.426-0.261 0-0.501-0.007-0.733-0.022l-0.319-0.021v8.998l0.274 0.024c0.254 0.022 0.516 0.033 0.78 0.033 0.882-0.004 1.761-0.117 2.615-0.339 0.704-0.176 1.388-0.422 2.044-0.734l0.171-0.082v-8.75z"></path>
<path d="M26.76 23.427c-0.057-0.060-0.127-0.106-0.203-0.137s-0.159-0.045-0.241-0.042c-0.088-0.001-0.175 0.015-0.257 0.048-0.075 0.030-0.143 0.075-0.2 0.132s-0.1 0.126-0.129 0.201c-0.031 0.079-0.047 0.163-0.046 0.248v1.499c-0.004 0.106 0.017 0.211 0.059 0.307 0.035 0.077 0.086 0.145 0.15 0.201 0.060 0.050 0.13 0.087 0.206 0.107 0.073 0.020 0.148 0.031 0.224 0.031 0.083 0.001 0.166-0.017 0.242-0.052 0.075-0.033 0.143-0.080 0.2-0.139 0.056-0.058 0.1-0.126 0.131-0.201 0.032-0.076 0.048-0.157 0.048-0.239v-0.168h-0.392v0.134c0.001 0.046-0.007 0.091-0.023 0.134-0.013 0.032-0.032 0.061-0.057 0.084-0.024 0.020-0.052 0.034-0.082 0.043-0.026 0.009-0.054 0.014-0.082 0.014-0.035 0.004-0.070-0.001-0.103-0.015s-0.060-0.037-0.081-0.065c-0.037-0.060-0.055-0.13-0.052-0.201v-1.397c-0.002-0.078 0.014-0.154 0.048-0.224 0.020-0.032 0.049-0.057 0.083-0.073s0.072-0.022 0.109-0.018c0.034-0.001 0.067 0.006 0.098 0.021s0.057 0.037 0.077 0.064c0.044 0.058 0.067 0.128 0.065 0.201v0.13h0.388v-0.153c0.001-0.090-0.016-0.179-0.048-0.262-0.029-0.078-0.073-0.15-0.131-0.211z"></path>
<path d="M29.088 23.41c-0.125-0.105-0.283-0.164-0.446-0.165-0.080 0-0.159 0.015-0.234 0.042-0.076 0.027-0.146 0.069-0.207 0.123-0.065 0.058-0.117 0.13-0.152 0.21-0.039 0.092-0.059 0.191-0.057 0.29v1.438c-0.003 0.101 0.017 0.202 0.057 0.294 0.035 0.077 0.087 0.146 0.152 0.201 0.060 0.056 0.13 0.099 0.207 0.127 0.075 0.028 0.154 0.042 0.234 0.042s0.159-0.014 0.234-0.042c0.078-0.028 0.15-0.071 0.212-0.127s0.113-0.124 0.148-0.201c0.040-0.093 0.060-0.193 0.057-0.294v-1.438c0.002-0.1-0.017-0.199-0.057-0.29-0.035-0.079-0.085-0.151-0.148-0.21zM28.905 25.348c0.003 0.038-0.002 0.077-0.015 0.113s-0.035 0.069-0.062 0.095c-0.052 0.043-0.117 0.067-0.184 0.067s-0.133-0.024-0.184-0.067c-0.028-0.027-0.049-0.059-0.062-0.095s-0.019-0.075-0.015-0.113v-1.438c-0.003-0.038 0.002-0.077 0.015-0.113s0.035-0.068 0.062-0.095c0.052-0.043 0.117-0.067 0.184-0.067s0.133 0.024 0.184 0.067c0.028 0.027 0.049 0.059 0.062 0.095s0.019 0.075 0.015 0.113v1.438z"></path>
<path d="M32.145 25.99v-2.721h-0.377l-0.495 1.441h-0.007l-0.499-1.441h-0.373v2.721h0.389v-1.656h0.007l0.381 1.17h0.194l0.384-1.17h0.007v1.656h0.389z"></path>
<path d="M34.354 23.459c-0.060-0.067-0.135-0.118-0.22-0.149-0.091-0.030-0.186-0.044-0.282-0.042h-0.578v2.721h0.388v-1.063h0.2c0.121 0.006 0.241-0.020 0.35-0.074 0.088-0.049 0.162-0.121 0.213-0.208 0.045-0.072 0.075-0.153 0.089-0.237 0.015-0.102 0.022-0.206 0.021-0.309 0.004-0.131-0.009-0.261-0.038-0.389-0.026-0.094-0.075-0.18-0.143-0.25zM34.154 24.289c-0.002 0.049-0.014 0.098-0.036 0.142-0.022 0.042-0.057 0.075-0.1 0.095-0.057 0.026-0.12 0.037-0.183 0.034h-0.177v-0.925h0.2c0.060-0.003 0.12 0.009 0.175 0.034 0.040 0.023 0.072 0.058 0.091 0.1 0.021 0.048 0.033 0.099 0.034 0.152 0 0.057 0 0.118 0 0.181s0.004 0.129 0 0.187h-0.004z"></path>
<path d="M36.191 23.268h-0.318l-0.6 2.721h0.388l0.114-0.585h0.529l0.114 0.585h0.388l-0.615-2.721zM35.833 25.034l0.191-0.986h0.007l0.19 0.986h-0.388z"></path>
<path d="M38.696 24.908h-0.007l-0.586-1.639h-0.373v2.721h0.388v-1.637h0.008l0.593 1.637h0.365v-2.721h-0.388v1.639z"></path>
<path d="M41.066 23.268l-0.312 1.082h-0.008l-0.312-1.082h-0.411l0.533 1.571v1.15h0.388v-1.15l0.533-1.571h-0.41z"></path>
</symbol>
<symbol id="icon-icon-client3" viewBox="0 0 67 32">
<path d="M27.025 24.963c0.006 0 0.012 0.001 0.018 0.004s0.011 0.005 0.015 0.009l0.086 0.082c-0.067 0.067-0.15 0.12-0.242 0.156-0.109 0.040-0.226 0.059-0.344 0.056-0.111 0.002-0.221-0.016-0.323-0.052-0.092-0.034-0.175-0.084-0.243-0.148-0.069-0.066-0.123-0.144-0.157-0.228-0.038-0.094-0.056-0.193-0.055-0.293-0.002-0.1 0.019-0.2 0.059-0.294 0.038-0.085 0.094-0.163 0.167-0.228 0.074-0.064 0.162-0.115 0.259-0.149 0.106-0.036 0.219-0.054 0.333-0.052 0.106-0.002 0.211 0.014 0.309 0.048 0.085 0.032 0.164 0.077 0.232 0.132l-0.072 0.088c-0.005 0.006-0.011 0.012-0.018 0.016-0.009 0.005-0.019 0.007-0.029 0.007s-0.022-0.004-0.031-0.009l-0.039-0.023-0.054-0.030c-0.023-0.011-0.047-0.021-0.072-0.029-0.032-0.010-0.065-0.018-0.098-0.023-0.042-0.007-0.085-0.010-0.128-0.009-0.082-0.001-0.163 0.012-0.239 0.039-0.071 0.025-0.135 0.063-0.187 0.11-0.054 0.051-0.095 0.111-0.122 0.176-0.030 0.075-0.045 0.153-0.044 0.232-0.001 0.080 0.014 0.16 0.044 0.236 0.026 0.065 0.067 0.124 0.12 0.175 0.049 0.048 0.11 0.085 0.179 0.109 0.070 0.025 0.146 0.038 0.222 0.037 0.044 0.001 0.088-0.002 0.131-0.008 0.071-0.008 0.139-0.029 0.199-0.063 0.030-0.017 0.059-0.037 0.085-0.058 0.011-0.009 0.026-0.015 0.041-0.015z"></path>
<path d="M29.513 24.549c0.001 0.099-0.018 0.198-0.058 0.291-0.035 0.084-0.090 0.161-0.162 0.226s-0.159 0.115-0.255 0.148c-0.211 0.070-0.444 0.070-0.655 0-0.095-0.034-0.182-0.084-0.253-0.149-0.072-0.066-0.128-0.143-0.164-0.228-0.078-0.189-0.078-0.395 0-0.583 0.037-0.085 0.092-0.163 0.164-0.229 0.072-0.062 0.158-0.111 0.253-0.143 0.211-0.071 0.444-0.071 0.655 0 0.096 0.034 0.182 0.084 0.254 0.149 0.071 0.065 0.126 0.142 0.163 0.226 0.040 0.094 0.060 0.193 0.058 0.293zM29.287 24.549c0.002-0.079-0.012-0.159-0.041-0.234-0.024-0.065-0.063-0.124-0.115-0.175-0.051-0.048-0.113-0.086-0.182-0.11-0.153-0.051-0.323-0.051-0.476 0-0.069 0.025-0.132 0.062-0.182 0.11-0.053 0.051-0.092 0.11-0.116 0.175-0.055 0.152-0.055 0.316 0 0.468 0.024 0.065 0.064 0.124 0.116 0.175 0.051 0.048 0.113 0.085 0.182 0.11 0.154 0.050 0.323 0.050 0.476 0 0.069-0.024 0.131-0.062 0.182-0.11 0.052-0.051 0.091-0.11 0.115-0.175 0.029-0.075 0.043-0.154 0.041-0.234z"></path>
<path d="M31.21 24.795l0.023 0.052c0.009-0.019 0.016-0.036 0.025-0.052s0.018-0.035 0.028-0.051l0.55-0.869c0.011-0.015 0.020-0.024 0.031-0.027 0.015-0.004 0.030-0.005 0.045-0.005h0.163v1.414h-0.193v-1.040c0-0.013 0-0.028 0-0.044-0.001-0.016-0.001-0.032 0-0.049l-0.554 0.882c-0.007 0.013-0.018 0.024-0.032 0.032s-0.031 0.012-0.047 0.012h-0.031c-0.017 0-0.033-0.004-0.047-0.012s-0.025-0.019-0.032-0.032l-0.57-0.887c0 0.017 0 0.034 0 0.051s0 0.032 0 0.045v1.040h-0.186v-1.411h0.163c0.015-0.001 0.031 0.001 0.045 0.005 0.013 0.006 0.024 0.015 0.030 0.027l0.562 0.87c0.011 0.016 0.020 0.033 0.028 0.051z"></path>
<path d="M33.282 24.724v0.53h-0.215v-1.412h0.48c0.091-0.002 0.181 0.009 0.268 0.031 0.070 0.017 0.134 0.047 0.19 0.088 0.048 0.038 0.085 0.086 0.108 0.139 0.025 0.058 0.038 0.119 0.037 0.181 0.001 0.062-0.013 0.123-0.040 0.181-0.026 0.054-0.066 0.103-0.116 0.141-0.055 0.043-0.12 0.074-0.191 0.094-0.084 0.023-0.172 0.034-0.26 0.033l-0.261-0.004zM33.282 24.573h0.261c0.057 0.001 0.113-0.007 0.167-0.022 0.045-0.013 0.086-0.034 0.121-0.061 0.032-0.026 0.057-0.058 0.073-0.094 0.018-0.038 0.026-0.078 0.026-0.119 0.003-0.039-0.005-0.078-0.022-0.115s-0.042-0.069-0.075-0.096c-0.082-0.056-0.186-0.083-0.29-0.076h-0.261v0.582z"></path>
<path d="M36.177 25.256h-0.17c-0.017 0.001-0.034-0.004-0.047-0.013-0.012-0.009-0.022-0.020-0.028-0.033l-0.147-0.342h-0.736l-0.152 0.342c-0.006 0.013-0.015 0.023-0.027 0.032-0.014 0.010-0.031 0.015-0.048 0.014h-0.17l0.646-1.414h0.224l0.655 1.414zM35.111 24.731h0.608l-0.256-0.576c-0.020-0.043-0.036-0.088-0.048-0.133l-0.025 0.074c-0.008 0.022-0.016 0.043-0.024 0.060l-0.254 0.575z"></path>
<path d="M37.108 23.849c0.013 0.006 0.024 0.015 0.032 0.025l0.942 1.066c0-0.017 0-0.034 0-0.050s0-0.032 0-0.047v-1.001h0.193v1.414h-0.108c-0.015 0-0.030-0.003-0.044-0.008s-0.025-0.016-0.034-0.026l-0.941-1.065c0.001 0.016 0.001 0.032 0 0.049 0 0.016 0 0.030 0 0.043v1.008h-0.193v-1.414h0.114c0.013-0 0.027 0.002 0.039 0.007z"></path>
<path d="M39.863 24.694v0.562h-0.215v-0.562l-0.596-0.852h0.193c0.017-0.001 0.033 0.003 0.046 0.012 0.012 0.009 0.022 0.020 0.029 0.032l0.373 0.549c0.015 0.023 0.028 0.045 0.039 0.066s0.020 0.040 0.027 0.060l0.028-0.061c0.010-0.022 0.023-0.044 0.036-0.065l0.367-0.553c0.008-0.011 0.017-0.021 0.028-0.030 0.013-0.010 0.029-0.015 0.046-0.014h0.195l-0.597 0.855z"></path>
<path d="M31.104 21.469c0.094 0.010 0.189 0.019 0.284 0.026 1.453-0.565 2.683-1.489 3.535-2.658s1.289-2.53 1.255-3.913l-1.602-1.392c0.326 1.473 0.173 2.995-0.44 4.396s-1.663 2.627-3.033 3.54z"></path>
<path d="M30.532 21.404l0.043 0.007c1.463-0.909 2.579-2.179 3.203-3.645s0.727-3.061 0.296-4.579l-2.281-1.982c0.923 1.629 1.294 3.453 1.071 5.258s-1.032 3.519-2.331 4.941z"></path>
<path d="M38.269 16.558c-0.388 1.52-1.329 2.89-2.684 3.908-0.396 0.299-0.823 0.565-1.275 0.795 1.104-0.282 2.118-0.78 2.965-1.456s1.504-1.513 1.92-2.444l-0.925-0.803z"></path>
<path d="M37.906 16.335l-1.317-1.145c-0.025 1.305-0.452 2.58-1.237 3.693s-1.898 2.023-3.224 2.636h0.006c0.296-0 0.591-0.015 0.884-0.046 1.239-0.44 2.334-1.139 3.187-2.036s1.437-1.963 1.7-3.103z"></path>
<path d="M30.723 10.37l-1.572-1.367c-1.405 0.472-2.613 1.301-3.467 2.379s-1.312 2.355-1.317 3.664v0c0.005 1.446 0.565 2.849 1.592 3.987s2.46 1.947 4.075 2.297c1.441-1.526 2.285-3.411 2.409-5.382s-0.479-3.925-1.721-5.578z"></path>
<path d="M41.537 16.124c-0.006-1.716-0.792-3.359-2.189-4.573s-3.288-1.897-5.263-1.902c-0.912-0.001-1.817 0.145-2.668 0.431l9.622 8.36c0.329-0.739 0.499-1.525 0.498-2.317z"></path>
</symbol>
<symbol id="icon-icon-client4" viewBox="0 0 67 32">
<path d="M22.181 13.902h-0.001c-0.947 0-1.715 0.682-1.715 1.524v0.001c0 0.842 0.768 1.524 1.715 1.524h0.001c0.947 0 1.715-0.683 1.715-1.524v-0.001c0-0.842-0.768-1.524-1.715-1.524z"></path>
<path d="M34.842 13.415c-0.003-1.169-0.526-2.29-1.457-3.117s-2.191-1.293-3.507-1.295v0c-1.316 0.002-2.578 0.468-3.509 1.295s-1.455 1.948-1.458 3.118v6.449c0 0 9.929-0.983 9.93-6.448v-0.001z"></path>
<path d="M16.988 21.98c0.002 0.814 0.367 1.593 1.014 2.169s1.525 0.9 2.44 0.902c0.915-0.002 1.792-0.327 2.44-0.902s1.012-1.355 1.015-2.168v-4.487c0 0-6.909 0.684-6.909 4.486zM20.442 22.784c-0.179 0-0.354-0.047-0.503-0.136s-0.265-0.214-0.333-0.361c-0.068-0.147-0.086-0.309-0.051-0.465s0.121-0.299 0.248-0.412c0.127-0.112 0.288-0.189 0.463-0.22s0.357-0.015 0.523 0.046c0.165 0.061 0.307 0.164 0.406 0.296s0.152 0.288 0.152 0.447c0 0.106-0.023 0.211-0.068 0.309s-0.112 0.187-0.196 0.262c-0.084 0.075-0.184 0.134-0.294 0.175s-0.228 0.061-0.347 0.061v-0.003z"></path>
<path d="M26.758 21.345v1.685h-0.347v-1.685h0.347zM27.429 22.064v0.271h-0.766v-0.271h0.766zM27.51 21.345v0.272h-0.847v-0.272h0.847zM29.096 22.148v0.080c0 0.128-0.017 0.243-0.052 0.345s-0.084 0.189-0.147 0.26c-0.063 0.071-0.139 0.125-0.227 0.163s-0.184 0.057-0.291 0.057c-0.106 0-0.203-0.019-0.291-0.057s-0.163-0.092-0.227-0.163c-0.064-0.072-0.114-0.159-0.149-0.26s-0.052-0.217-0.052-0.345v-0.080c0-0.129 0.017-0.244 0.052-0.345s0.084-0.189 0.147-0.26c0.064-0.072 0.14-0.127 0.227-0.164s0.185-0.057 0.291-0.057c0.106 0 0.203 0.019 0.291 0.057s0.164 0.093 0.227 0.164c0.064 0.072 0.113 0.159 0.148 0.26s0.053 0.216 0.053 0.345zM28.745 22.228v-0.082c0-0.090-0.008-0.168-0.024-0.236s-0.040-0.125-0.072-0.171c-0.032-0.046-0.070-0.081-0.116-0.104s-0.098-0.036-0.156-0.036-0.111 0.012-0.156 0.036c-0.045 0.023-0.083 0.058-0.115 0.104s-0.054 0.103-0.071 0.171c-0.016 0.068-0.024 0.147-0.024 0.236v0.082c0 0.089 0.008 0.167 0.024 0.236s0.040 0.125 0.072 0.172c0.032 0.046 0.070 0.081 0.116 0.105s0.098 0.036 0.156 0.036c0.059 0 0.111-0.012 0.156-0.036s0.084-0.059 0.115-0.105c0.031-0.047 0.054-0.105 0.071-0.172s0.024-0.147 0.024-0.236zM30.223 22.589c0-0.030-0.005-0.057-0.014-0.081s-0.025-0.047-0.049-0.067c-0.024-0.021-0.057-0.041-0.101-0.061s-0.099-0.041-0.168-0.063c-0.076-0.025-0.149-0.052-0.218-0.083s-0.128-0.067-0.181-0.108c-0.052-0.042-0.093-0.090-0.123-0.145s-0.044-0.118-0.044-0.191c0-0.070 0.015-0.134 0.046-0.191s0.074-0.107 0.13-0.148c0.056-0.042 0.121-0.074 0.197-0.096s0.16-0.034 0.251-0.034c0.124 0 0.233 0.022 0.325 0.067s0.164 0.106 0.215 0.184c0.052 0.078 0.078 0.167 0.078 0.267h-0.345c0-0.049-0.010-0.093-0.031-0.13s-0.051-0.068-0.093-0.089c-0.041-0.022-0.093-0.032-0.155-0.032-0.060 0-0.11 0.009-0.15 0.028s-0.070 0.042-0.090 0.073c-0.020 0.030-0.030 0.064-0.030 0.102 0 0.029 0.007 0.054 0.021 0.078s0.036 0.045 0.065 0.065c0.029 0.020 0.064 0.039 0.105 0.057s0.090 0.035 0.145 0.052c0.092 0.028 0.172 0.059 0.242 0.094s0.129 0.074 0.176 0.117c0.047 0.043 0.083 0.092 0.106 0.147s0.036 0.117 0.036 0.186c0 0.073-0.014 0.139-0.043 0.197s-0.070 0.107-0.124 0.147-0.118 0.071-0.193 0.091c-0.075 0.021-0.159 0.031-0.251 0.031-0.083 0-0.166-0.011-0.247-0.032s-0.155-0.056-0.221-0.101c-0.066-0.045-0.118-0.102-0.157-0.171s-0.059-0.152-0.059-0.247h0.348c0 0.052 0.008 0.097 0.024 0.133s0.039 0.066 0.068 0.088c0.030 0.022 0.066 0.039 0.107 0.049s0.087 0.015 0.137 0.015c0.060 0 0.11-0.009 0.148-0.025s0.068-0.041 0.087-0.071c0.019-0.030 0.029-0.064 0.029-0.102zM31.56 21.345v1.685h-0.346v-1.685h0.346zM32.078 21.345v0.272h-1.375v-0.272h1.375zM33.407 22.759v0.271h-0.897v-0.271h0.897zM32.623 21.345v1.685h-0.347v-1.685h0.347zM33.29 22.031v0.264h-0.78v-0.264h0.78zM33.406 21.345v0.272h-0.896v-0.272h0.896zM33.609 21.345h0.628c0.129 0 0.24 0.019 0.332 0.058s0.165 0.096 0.215 0.171c0.050 0.076 0.075 0.169 0.075 0.279 0 0.090-0.015 0.168-0.046 0.233s-0.073 0.118-0.128 0.161c-0.055 0.042-0.119 0.076-0.193 0.102l-0.11 0.058h-0.546l-0.002-0.271h0.406c0.061 0 0.111-0.011 0.152-0.032s0.070-0.052 0.090-0.090c0.021-0.039 0.031-0.083 0.031-0.134 0-0.054-0.010-0.101-0.030-0.14s-0.051-0.069-0.091-0.090c-0.041-0.021-0.092-0.031-0.154-0.031h-0.281v1.413h-0.347v-1.685zM34.552 23.030l-0.384-0.751 0.367-0.002 0.389 0.737v0.016h-0.372zM36.374 22.429h-0.429v-0.271h0.429c0.066 0 0.12-0.011 0.162-0.032s0.072-0.053 0.091-0.093c0.019-0.039 0.029-0.084 0.029-0.133s-0.010-0.097-0.029-0.14c-0.019-0.043-0.050-0.078-0.091-0.104s-0.096-0.039-0.162-0.039h-0.309v1.413h-0.347v-1.685h0.656c0.132 0 0.245 0.024 0.339 0.072s0.167 0.112 0.218 0.196c0.050 0.083 0.075 0.179 0.075 0.286 0 0.109-0.025 0.203-0.075 0.282s-0.123 0.141-0.218 0.184c-0.094 0.043-0.207 0.065-0.339 0.065zM38.377 22.759v0.271h-0.897v-0.271h0.897zM37.593 21.345v1.685h-0.347v-1.685h0.347zM38.26 22.031v0.264h-0.78v-0.264h0.78zM38.376 21.345v0.272h-0.896v-0.272h0.896zM39.356 21.345v1.685h-0.346v-1.685h0.346zM39.874 21.345v0.272h-1.375v-0.272h1.375zM41.203 22.759v0.271h-0.897v-0.271h0.897zM40.42 21.345v1.685h-0.347v-1.685h0.347zM41.086 22.031v0.264h-0.78v-0.264h0.78zM41.202 21.345v0.272h-0.896v-0.272h0.896zM41.406 21.345h0.629c0.129 0 0.24 0.019 0.332 0.058s0.165 0.096 0.215 0.171 0.075 0.169 0.075 0.279c0 0.090-0.015 0.168-0.046 0.233s-0.073 0.118-0.128 0.161c-0.055 0.042-0.119 0.076-0.193 0.102l-0.11 0.058h-0.546l-0.002-0.271h0.406c0.061 0 0.111-0.011 0.152-0.032s0.070-0.052 0.090-0.090c0.021-0.039 0.031-0.083 0.031-0.134 0-0.054-0.010-0.101-0.030-0.14s-0.051-0.069-0.091-0.090c-0.041-0.021-0.092-0.031-0.154-0.031h-0.281v1.413h-0.347v-1.685zM42.348 23.030l-0.384-0.751 0.367-0.002 0.389 0.737v0.016h-0.371zM43.802 22.589c0-0.030-0.005-0.057-0.014-0.081s-0.025-0.047-0.049-0.067c-0.024-0.021-0.058-0.041-0.101-0.061s-0.099-0.041-0.168-0.063c-0.077-0.025-0.149-0.052-0.218-0.083s-0.128-0.067-0.181-0.108c-0.052-0.042-0.092-0.090-0.123-0.145-0.029-0.055-0.044-0.118-0.044-0.191 0-0.070 0.015-0.134 0.046-0.191s0.074-0.107 0.13-0.148c0.056-0.042 0.121-0.074 0.197-0.096s0.16-0.034 0.251-0.034c0.124 0 0.233 0.022 0.326 0.067s0.164 0.106 0.215 0.184c0.052 0.078 0.078 0.167 0.078 0.267h-0.345c0-0.049-0.011-0.093-0.031-0.13s-0.051-0.068-0.093-0.089c-0.041-0.022-0.092-0.032-0.155-0.032-0.060 0-0.111 0.009-0.151 0.028s-0.070 0.042-0.090 0.073c-0.020 0.030-0.030 0.064-0.030 0.102 0 0.029 0.007 0.054 0.021 0.078s0.036 0.045 0.065 0.065c0.028 0.020 0.064 0.039 0.105 0.057s0.090 0.035 0.145 0.052c0.092 0.028 0.172 0.059 0.242 0.094s0.129 0.074 0.176 0.117c0.047 0.043 0.083 0.092 0.107 0.147s0.036 0.117 0.036 0.186c0 0.073-0.014 0.139-0.043 0.197s-0.070 0.107-0.124 0.147c-0.054 0.040-0.119 0.071-0.193 0.091s-0.159 0.031-0.251 0.031c-0.083 0-0.166-0.011-0.247-0.032s-0.155-0.056-0.221-0.101c-0.066-0.045-0.118-0.102-0.157-0.171s-0.059-0.152-0.059-0.247h0.348c0 0.052 0.008 0.097 0.025 0.133s0.039 0.066 0.068 0.088c0.030 0.022 0.066 0.039 0.106 0.049 0.042 0.010 0.087 0.015 0.137 0.015 0.060 0 0.109-0.009 0.148-0.025s0.068-0.041 0.087-0.071c0.019-0.030 0.029-0.064 0.029-0.102z"></path>
</symbol>
<symbol id="icon-icon-client5" viewBox="0 0 67 32">
<path d="M23.213 23.238c0.096 0.109 0.148 0.246 0.145 0.386 0.005 0.091-0.013 0.183-0.052 0.267s-0.098 0.16-0.173 0.22c-0.187 0.129-0.419 0.192-0.653 0.178h-1.147v-2.446h1.124c0.222-0.014 0.442 0.044 0.623 0.163 0.073 0.056 0.13 0.126 0.168 0.205s0.055 0.166 0.050 0.252c0.007 0.135-0.040 0.268-0.131 0.374-0.087 0.097-0.208 0.165-0.342 0.191 0.152 0.025 0.29 0.1 0.388 0.209zM21.867 22.869h0.48c0.109 0.007 0.218-0.021 0.305-0.081 0.036-0.030 0.064-0.067 0.082-0.108s0.025-0.086 0.021-0.131c0.003-0.044-0.004-0.089-0.022-0.13s-0.045-0.079-0.080-0.109c-0.090-0.061-0.202-0.091-0.314-0.082h-0.472v0.642zM22.7 23.807c0.039-0.031 0.069-0.069 0.089-0.112s0.028-0.090 0.025-0.136c0.003-0.047-0.006-0.094-0.026-0.138s-0.051-0.082-0.090-0.113c-0.094-0.064-0.21-0.095-0.326-0.088h-0.504v0.673h0.51c0.115 0.006 0.229-0.024 0.322-0.085z"></path>
<path d="M25.509 24.29l-0.625-0.956h-0.235v0.956h-0.538v-2.446h1.018c0.257-0.016 0.51 0.058 0.709 0.208 0.142 0.133 0.228 0.308 0.242 0.493s-0.045 0.37-0.166 0.519c-0.126 0.132-0.297 0.22-0.485 0.249l0.666 0.977h-0.585zM24.649 23.001h0.44c0.305 0 0.458-0.123 0.458-0.37 0.003-0.050-0.005-0.101-0.025-0.148s-0.049-0.090-0.088-0.127c-0.096-0.073-0.221-0.109-0.346-0.099h-0.445l0.005 0.744z"></path>
<path d="M28.448 23.798h-1.071l-0.189 0.492h-0.564l0.984-2.419h0.609l0.98 2.419h-0.564l-0.185-0.492zM28.305 23.427l-0.392-1.032-0.392 1.032h0.783z"></path>
<path d="M32.127 24.29h-0.534l-1.197-1.663v1.663h-0.532v-2.446h0.532l1.197 1.673v-1.673h0.534v2.446z"></path>
<path d="M35.173 23.704c-0.11 0.185-0.279 0.335-0.483 0.431-0.232 0.107-0.49 0.16-0.75 0.154h-0.95v-2.446h0.95c0.26-0.006 0.517 0.045 0.75 0.151 0.204 0.094 0.373 0.243 0.483 0.427 0.11 0.199 0.167 0.419 0.167 0.642s-0.057 0.443-0.167 0.642zM34.563 23.646c0.152-0.163 0.236-0.37 0.236-0.584s-0.084-0.421-0.236-0.584c-0.184-0.147-0.424-0.222-0.668-0.208h-0.371v1.583h0.371c0.244 0.014 0.484-0.061 0.668-0.208z"></path>
<path d="M28.783 8.238c0 0 6.889 2.381 6.743 5.828v5.829c0 0-6.884-2.383-6.741-5.829l-0.003-5.828z"></path>
<path d="M41.663 18.53c1.301-0.82 2.806-1.328 4.377-1.477v-1.825c-1.81 0.639-3.346 1.797-4.377 3.302z"></path>
<path d="M40.882 19.080c1.065-1.963 2.911-3.479 5.159-4.234v-5.258c0 0-9.811 3.392-9.604 8.3v8.299c0 0 0.437-0.152 1.125-0.436 0-0.265 0-0.533 0.031-0.802 0.203-2.278 1.386-4.39 3.289-5.869z"></path>
<path d="M39.949 22.163c0.051-0.576 0.166-1.145 0.343-1.699-1.185 1.278-1.902 2.864-2.052 4.535-0.014 0.158-0.022 0.315-0.026 0.478 0.557-0.245 1.206-0.551 1.887-0.911-0.174-0.79-0.225-1.599-0.153-2.403z"></path>
<path d="M40.339 22.193c-0.065 0.727-0.025 1.459 0.122 2.176 2.681-1.469 5.692-3.738 5.576-6.48v-0.239c-1.915 0.196-3.707 0.963-5.1 2.182-0.326 0.756-0.527 1.551-0.598 2.361z"></path>
</symbol>
<symbol id="icon-icon-client6" viewBox="0 0 67 32">
<path d="M33.748 16.393c-0.175-0.233-0.259-0.508-0.239-0.786v-1.139c0-0.349 0.079-0.615 0.238-0.796s0.43-0.272 0.816-0.271c0.362 0 0.62 0.077 0.772 0.232 0.166 0.197 0.247 0.438 0.228 0.681v0.268h-0.648v-0.271c0.002-0.089-0.004-0.178-0.019-0.265-0.009-0.060-0.042-0.116-0.093-0.158-0.067-0.045-0.15-0.067-0.235-0.061-0.089-0.006-0.177 0.017-0.247 0.065-0.056 0.046-0.094 0.107-0.107 0.174-0.019 0.093-0.027 0.187-0.025 0.282v1.382c-0.010 0.133 0.018 0.267 0.083 0.388 0.032 0.041 0.077 0.074 0.129 0.094s0.11 0.028 0.167 0.022c0.083 0.006 0.165-0.017 0.23-0.063 0.053-0.045 0.087-0.104 0.097-0.168 0.015-0.092 0.022-0.184 0.020-0.277v-0.28h0.648v0.256c0.018 0.253-0.061 0.505-0.224 0.716-0.149 0.169-0.403 0.254-0.776 0.254s-0.655-0.090-0.815-0.278z"></path>
<path d="M36.447 16.405c-0.164-0.177-0.246-0.436-0.246-0.777v-1.198c0-0.338 0.082-0.594 0.246-0.768s0.438-0.26 0.821-0.26c0.381 0 0.654 0.087 0.817 0.26s0.247 0.43 0.247 0.768v1.198c0 0.338-0.083 0.598-0.25 0.776s-0.438 0.268-0.815 0.268c-0.377 0-0.656-0.090-0.821-0.267zM37.571 16.117c0.059-0.111 0.085-0.233 0.078-0.355v-1.467c0.008-0.12-0.019-0.239-0.077-0.348-0.033-0.042-0.079-0.075-0.132-0.096s-0.113-0.028-0.171-0.020c-0.058-0.007-0.118 0-0.171 0.021s-0.1 0.053-0.133 0.095c-0.059 0.108-0.086 0.228-0.078 0.348v1.474c-0.008 0.122 0.019 0.244 0.078 0.355 0.038 0.037 0.084 0.067 0.137 0.088s0.109 0.031 0.167 0.031c0.057 0 0.114-0.011 0.167-0.031s0.099-0.050 0.137-0.088v-0.007z"></path>
<path d="M39.112 13.436h0.698l0.525 2.211 0.537-2.211h0.679l0.069 3.191h-0.502l-0.054-2.218-0.518 2.218h-0.403l-0.537-2.226-0.050 2.226h-0.507l0.063-3.191z"></path>
<path d="M42.402 13.436h1.087c0.626 0 0.939 0.302 0.939 0.906 0 0.579-0.33 0.867-0.989 0.867h-0.37v1.418h-0.671l0.004-3.191zM43.331 14.8c0.066 0.007 0.134 0.002 0.198-0.015s0.122-0.047 0.171-0.085c0.077-0.108 0.111-0.234 0.097-0.36 0.004-0.097-0.008-0.195-0.032-0.29-0.009-0.032-0.026-0.062-0.049-0.088s-0.052-0.048-0.085-0.064c-0.093-0.039-0.196-0.056-0.299-0.051h-0.26v0.954h0.26z"></path>
<path d="M45.396 13.436h0.721l0.74 3.191h-0.626l-0.146-0.736h-0.643l-0.151 0.736h-0.634l0.739-3.191zM46.012 15.522l-0.251-1.339-0.251 1.339h0.502z"></path>
<path d="M47.454 13.436h0.47l0.899 1.82v-1.82h0.557v3.191h-0.447l-0.905-1.9v1.9h-0.576l0.001-3.191z"></path>
<path d="M50.684 15.41l-0.747-1.97h0.63l0.456 1.265 0.428-1.265h0.616l-0.738 1.97v1.217h-0.644v-1.217z"></path>
<path d="M34.784 18.022v0.167h-0.548v1.297h-0.23v-1.297h-0.55v-0.167h1.327z"></path>
<path d="M36.501 19.486h-0.177c-0.018 0.001-0.036-0.004-0.050-0.014-0.013-0.009-0.024-0.020-0.029-0.034l-0.158-0.348h-0.76l-0.158 0.348c-0.005 0.015-0.013 0.028-0.024 0.039-0.014 0.010-0.032 0.015-0.050 0.014h-0.177l0.671-1.463h0.234l0.679 1.458zM35.389 18.942h0.634l-0.268-0.596c-0.020-0.045-0.036-0.091-0.050-0.138-0.009 0.028-0.017 0.054-0.025 0.078l-0.024 0.061-0.266 0.594z"></path>
<path d="M37.658 19.342c0.042 0.002 0.084 0.002 0.126 0 0.036-0.003 0.072-0.009 0.107-0.017 0.033-0.007 0.065-0.016 0.097-0.027 0.030-0.010 0.059-0.023 0.090-0.036v-0.329h-0.268c-0.007 0-0.013-0.001-0.020-0.003s-0.012-0.005-0.017-0.009c-0.004-0.003-0.008-0.007-0.010-0.012s-0.003-0.010-0.003-0.015v-0.112h0.521v0.561c-0.042 0.026-0.087 0.049-0.134 0.070-0.048 0.020-0.098 0.037-0.149 0.050-0.055 0.014-0.111 0.024-0.168 0.030-0.065 0.006-0.13 0.009-0.196 0.009-0.116 0.001-0.231-0.018-0.338-0.054-0.1-0.035-0.192-0.087-0.268-0.153-0.075-0.067-0.134-0.145-0.173-0.232-0.042-0.097-0.063-0.2-0.062-0.304-0.001-0.104 0.019-0.208 0.060-0.306 0.039-0.087 0.098-0.166 0.173-0.232 0.077-0.066 0.168-0.117 0.268-0.152 0.115-0.037 0.237-0.056 0.36-0.054 0.063-0 0.125 0.004 0.187 0.013 0.055 0.008 0.108 0.020 0.16 0.037 0.047 0.015 0.092 0.035 0.134 0.058 0.041 0.023 0.080 0.048 0.117 0.076l-0.064 0.090c-0.005 0.008-0.013 0.015-0.022 0.020s-0.020 0.008-0.031 0.008c-0.015-0-0.029-0.004-0.042-0.012-0.020-0.009-0.042-0.021-0.066-0.035-0.029-0.015-0.059-0.029-0.090-0.039-0.040-0.014-0.081-0.025-0.123-0.032-0.056-0.009-0.113-0.013-0.17-0.013-0.089-0.001-0.176 0.013-0.259 0.041-0.075 0.026-0.142 0.065-0.197 0.116-0.056 0.053-0.098 0.115-0.125 0.182-0.060 0.159-0.060 0.329 0 0.488 0.029 0.069 0.075 0.132 0.134 0.184 0.055 0.050 0.122 0.090 0.196 0.116 0.085 0.025 0.176 0.035 0.266 0.029z"></path>
<path d="M39.797 19.319h0.733v0.167h-0.957v-1.463h0.23l-0.006 1.297z"></path>
<path d="M41.292 19.486h-0.23v-1.463h0.23v1.463z"></path>
<path d="M42.146 18.029c0.014 0.007 0.026 0.016 0.035 0.027l0.981 1.103c-0.001-0.017-0.001-0.035 0-0.052 0-0.016 0-0.032 0-0.047v-1.043h0.2v1.469h-0.115c-0.017 0.001-0.034-0.002-0.050-0.008-0.014-0.007-0.026-0.017-0.036-0.028l-0.98-1.102c0 0.017 0 0.034 0 0.050s0 0.031 0 0.045v1.043h-0.192v-1.464h0.119c0.013 0 0.026 0.002 0.038 0.007z"></path>
<path d="M45.051 18.022v0.161h-0.813v0.483h0.659v0.155h-0.659v0.499h0.813v0.161h-1.049v-1.46h1.049z"></path>
<path d="M21.002 8.985l10.191 2.498v8.754l-10.191-2.497v-8.755zM20.349 8.238v9.926l11.497 2.819v-9.925l-11.497-2.82z"></path>
<path d="M26.51 25.592l-11.498-2.821v-9.925l11.498 2.82v9.926z"></path>
<path d="M20.539 8.872l10.058 2.467-4.277 3.694-10.059-2.468 4.279-3.693zM20.349 8.238l-5.336 4.607 11.498 2.82 5.335-4.607-11.497-2.82z"></path>
<path d="M27.157 25.033l4.688-4.048-4.688-1.151v5.199z"></path>
</symbol>
</defs>
</svg>
